<mxfile host="app.diagrams.net" modified="2024-03-18T13:10:50.455Z" agent="Mozilla/5.0 (X11; Ubuntu; Linux x86_64; rv:123.0) Gecko/20100101 Firefox/123.0" etag="20mM9EGnmlUs-WTa6YrC" version="24.0.7" type="github">
  <diagram name="Page-1" id="uxXfwcOaLtUjLL9CyZGj">
    <mxGraphModel dx="6250" dy="3595" grid="1" gridSize="10" guides="1" tooltips="1" connect="1" arrows="1" fold="1" page="1" pageScale="1" pageWidth="850" pageHeight="1100" math="0" shadow="0">
      <root>
        <mxCell id="0" />
        <mxCell id="1" parent="0" />
        <mxCell id="rjocITY-BjAMYuqfXkVi-3" value="&lt;font style=&quot;font-size: 18px;&quot;&gt;NCURSES&lt;/font&gt;" style="rounded=0;whiteSpace=wrap;html=1;fillColor=#FF6B6B;" parent="1" vertex="1">
          <mxGeometry x="457.5" y="1240" width="120" height="60" as="geometry" />
        </mxCell>
        <mxCell id="rjocITY-BjAMYuqfXkVi-4" value="&lt;div&gt;&lt;font style=&quot;font-size: 18px;&quot;&gt;SFML&lt;/font&gt;&lt;/div&gt;" style="rounded=0;whiteSpace=wrap;html=1;fillColor=#FF6B6B;" parent="1" vertex="1">
          <mxGeometry x="822.5" y="1240" width="120" height="60" as="geometry" />
        </mxCell>
        <mxCell id="rjocITY-BjAMYuqfXkVi-5" value="&lt;font style=&quot;font-size: 18px;&quot;&gt;SDL2&lt;/font&gt;" style="rounded=0;whiteSpace=wrap;html=1;fillColor=#FF6B6B;" parent="1" vertex="1">
          <mxGeometry x="645" y="1240" width="120" height="60" as="geometry" />
        </mxCell>
        <mxCell id="rjocITY-BjAMYuqfXkVi-26" style="edgeStyle=orthogonalEdgeStyle;rounded=0;orthogonalLoop=1;jettySize=auto;html=1;" parent="1" source="rjocITY-BjAMYuqfXkVi-8" target="rjocITY-BjAMYuqfXkVi-25" edge="1">
          <mxGeometry relative="1" as="geometry" />
        </mxCell>
        <mxCell id="rjocITY-BjAMYuqfXkVi-8" value="&lt;font style=&quot;font-size: 24px;&quot;&gt;CORE&lt;/font&gt;" style="ellipse;whiteSpace=wrap;html=1;fillColor=#4AA802;" parent="1" vertex="1">
          <mxGeometry x="530" y="-160" width="120" height="80" as="geometry" />
        </mxCell>
        <mxCell id="rjocITY-BjAMYuqfXkVi-11" value="&lt;font style=&quot;font-size: 18px;&quot;&gt;DYNAMIC LIB SDL2&lt;/font&gt;" style="rounded=0;whiteSpace=wrap;html=1;fillColor=#4760FF;" parent="1" vertex="1">
          <mxGeometry x="620" y="580" width="135" height="75" as="geometry" />
        </mxCell>
        <mxCell id="rjocITY-BjAMYuqfXkVi-12" value="&lt;font style=&quot;font-size: 18px;&quot;&gt;DYNAMIC LIB NCURSES&lt;/font&gt;" style="rounded=0;whiteSpace=wrap;html=1;fillColor=#4760FF;" parent="1" vertex="1">
          <mxGeometry x="440" y="580" width="125" height="75" as="geometry" />
        </mxCell>
        <mxCell id="rjocITY-BjAMYuqfXkVi-13" value="&lt;div&gt;&lt;font style=&quot;font-size: 18px;&quot;&gt;DYNAMIC LIB &lt;br&gt;&lt;/font&gt;&lt;/div&gt;&lt;div&gt;&lt;font style=&quot;font-size: 18px;&quot;&gt;SFML&lt;br&gt;&lt;/font&gt;&lt;/div&gt;" style="rounded=0;whiteSpace=wrap;html=1;fillColor=#4760FF;" parent="1" vertex="1">
          <mxGeometry x="800" y="580" width="130" height="75" as="geometry" />
        </mxCell>
        <mxCell id="rjocITY-BjAMYuqfXkVi-65" style="edgeStyle=orthogonalEdgeStyle;rounded=0;orthogonalLoop=1;jettySize=auto;html=1;" parent="1" source="rjocITY-BjAMYuqfXkVi-16" edge="1">
          <mxGeometry relative="1" as="geometry">
            <mxPoint x="850" y="275" as="targetPoint" />
          </mxGeometry>
        </mxCell>
        <mxCell id="rjocITY-BjAMYuqfXkVi-71" style="edgeStyle=orthogonalEdgeStyle;rounded=0;orthogonalLoop=1;jettySize=auto;html=1;" parent="1" source="rjocITY-BjAMYuqfXkVi-16" edge="1">
          <mxGeometry relative="1" as="geometry">
            <mxPoint x="530" y="275" as="targetPoint" />
          </mxGeometry>
        </mxCell>
        <mxCell id="rjocITY-BjAMYuqfXkVi-16" value="&lt;font style=&quot;font-size: 18px;&quot;&gt;GAME&lt;/font&gt;" style="ellipse;whiteSpace=wrap;html=1;aspect=fixed;fillColor=#FF5ECF;" parent="1" vertex="1">
          <mxGeometry x="622.5" y="220" width="110" height="110" as="geometry" />
        </mxCell>
        <mxCell id="rjocITY-BjAMYuqfXkVi-25" value="&lt;div&gt;&lt;font style=&quot;font-size: 18px;&quot;&gt;VARIABLE&lt;br&gt;&lt;/font&gt;&lt;/div&gt;&lt;div&gt;&lt;font style=&quot;font-size: 18px;&quot;&gt;LIB&lt;br&gt;&lt;/font&gt;&lt;/div&gt;" style="rounded=0;whiteSpace=wrap;html=1;fillColor=#F491FF;" parent="1" vertex="1">
          <mxGeometry x="530" y="10" width="120" height="60" as="geometry" />
        </mxCell>
        <mxCell id="CzD3i2Qadrxvu6I0S2lp-15" style="edgeStyle=orthogonalEdgeStyle;rounded=0;orthogonalLoop=1;jettySize=auto;html=1;" edge="1" parent="1" source="rjocITY-BjAMYuqfXkVi-35">
          <mxGeometry relative="1" as="geometry">
            <mxPoint x="830" y="140" as="targetPoint" />
          </mxGeometry>
        </mxCell>
        <mxCell id="rjocITY-BjAMYuqfXkVi-35" value="&lt;font style=&quot;font-size: 18px;&quot;&gt;MENU&lt;/font&gt;" style="ellipse;whiteSpace=wrap;html=1;fillColor=#9EC2FF;" parent="1" vertex="1">
          <mxGeometry x="612.5" y="100" width="120" height="80" as="geometry" />
        </mxCell>
        <mxCell id="rjocITY-BjAMYuqfXkVi-44" value="&lt;font style=&quot;font-size: 18px;&quot;&gt;LOADER&lt;/font&gt;" style="ellipse;whiteSpace=wrap;html=1;fillColor=#9EC2FF;" parent="1" vertex="1">
          <mxGeometry x="587.5" y="373.75" width="180" height="130" as="geometry" />
        </mxCell>
        <mxCell id="rjocITY-BjAMYuqfXkVi-48" value="&lt;div&gt;DANS LE JEUXTU ADAPTE CHAQUE&amp;nbsp; CREATION A LA CLASS GLobale lib_game&lt;br&gt;&lt;/div&gt;" style="ellipse;whiteSpace=wrap;html=1;fillColor=#9EC2FF;" parent="1" vertex="1">
          <mxGeometry x="-290" y="230" width="180" height="130" as="geometry" />
        </mxCell>
        <mxCell id="rjocITY-BjAMYuqfXkVi-58" style="edgeStyle=orthogonalEdgeStyle;rounded=0;orthogonalLoop=1;jettySize=auto;html=1;" parent="1" source="rjocITY-BjAMYuqfXkVi-54" target="rjocITY-BjAMYuqfXkVi-44" edge="1">
          <mxGeometry relative="1" as="geometry" />
        </mxCell>
        <mxCell id="rjocITY-BjAMYuqfXkVi-54" value="create_sprite LOADER" style="rounded=0;whiteSpace=wrap;html=1;fillColor=#FF6B6B;" parent="1" vertex="1">
          <mxGeometry x="620" y="305" width="115" height="55" as="geometry" />
        </mxCell>
        <mxCell id="rjocITY-BjAMYuqfXkVi-60" style="edgeStyle=orthogonalEdgeStyle;rounded=0;orthogonalLoop=1;jettySize=auto;html=1;entryX=0.377;entryY=-0.027;entryDx=0;entryDy=0;entryPerimeter=0;" parent="1" source="rjocITY-BjAMYuqfXkVi-44" target="rjocITY-BjAMYuqfXkVi-13" edge="1">
          <mxGeometry relative="1" as="geometry" />
        </mxCell>
        <mxCell id="rjocITY-BjAMYuqfXkVi-61" style="edgeStyle=orthogonalEdgeStyle;rounded=0;orthogonalLoop=1;jettySize=auto;html=1;entryX=0.424;entryY=-0.053;entryDx=0;entryDy=0;entryPerimeter=0;" parent="1" source="rjocITY-BjAMYuqfXkVi-44" target="rjocITY-BjAMYuqfXkVi-12" edge="1">
          <mxGeometry relative="1" as="geometry" />
        </mxCell>
        <mxCell id="rjocITY-BjAMYuqfXkVi-62" value="&lt;div&gt;MAP &lt;br&gt;&lt;/div&gt;&lt;div&gt;SNAKE&lt;br&gt;&lt;/div&gt;" style="ellipse;whiteSpace=wrap;html=1;fillColor=#9EC2FF;" parent="1" vertex="1">
          <mxGeometry x="-255" y="490" width="110" height="90" as="geometry" />
        </mxCell>
        <mxCell id="rjocITY-BjAMYuqfXkVi-64" value="&lt;div&gt;MAP &lt;br&gt;&lt;/div&gt;&lt;div&gt;SNAKE&lt;br&gt;&lt;/div&gt;" style="ellipse;whiteSpace=wrap;html=1;fillColor=#9EC2FF;" parent="1" vertex="1">
          <mxGeometry x="-280" y="390" width="110" height="90" as="geometry" />
        </mxCell>
        <mxCell id="rjocITY-BjAMYuqfXkVi-66" value="LEA" style="shape=umlActor;verticalLabelPosition=bottom;verticalAlign=top;html=1;outlineConnect=0;fillColor=#FF5E5E;" parent="1" vertex="1">
          <mxGeometry x="860" y="230" width="50" height="75" as="geometry" />
        </mxCell>
        <mxCell id="rjocITY-BjAMYuqfXkVi-67" value="Valentin" style="shape=umlActor;verticalLabelPosition=bottom;verticalAlign=top;html=1;outlineConnect=0;fillColor=#00CC00;" parent="1" vertex="1">
          <mxGeometry x="470" y="240" width="50" height="80" as="geometry" />
        </mxCell>
        <mxCell id="rjocITY-BjAMYuqfXkVi-72" value="Augustin" style="shape=umlActor;verticalLabelPosition=bottom;verticalAlign=top;html=1;outlineConnect=0;fillColor=#0088FF;" parent="1" vertex="1">
          <mxGeometry x="677.5" y="1130" width="50" height="80" as="geometry" />
        </mxCell>
        <mxCell id="rjocITY-BjAMYuqfXkVi-73" value="Augustin" style="shape=umlActor;verticalLabelPosition=bottom;verticalAlign=top;html=1;outlineConnect=0;fillColor=#0088FF;" parent="1" vertex="1">
          <mxGeometry x="522.5" y="100" width="42.5" height="72.5" as="geometry" />
        </mxCell>
        <mxCell id="rjocITY-BjAMYuqfXkVi-74" value="Augustin" style="shape=umlActor;verticalLabelPosition=bottom;verticalAlign=top;html=1;outlineConnect=0;fillColor=#0088FF;" parent="1" vertex="1">
          <mxGeometry x="662.5" y="-160" width="47.5" height="65" as="geometry" />
        </mxCell>
        <mxCell id="rjocITY-BjAMYuqfXkVi-75" style="edgeStyle=orthogonalEdgeStyle;rounded=0;orthogonalLoop=1;jettySize=auto;html=1;entryX=0;entryY=0.595;entryDx=0;entryDy=0;entryPerimeter=0;" parent="1" source="rjocITY-BjAMYuqfXkVi-25" target="rjocITY-BjAMYuqfXkVi-35" edge="1">
          <mxGeometry relative="1" as="geometry" />
        </mxCell>
        <mxCell id="rjocITY-BjAMYuqfXkVi-81" value="LEA" style="shape=umlActor;verticalLabelPosition=bottom;verticalAlign=top;html=1;outlineConnect=0;fillColor=#FF5E5E;" parent="1" vertex="1">
          <mxGeometry x="487.5" y="1130" width="50" height="80" as="geometry" />
        </mxCell>
        <mxCell id="rjocITY-BjAMYuqfXkVi-86" value="Valentin" style="shape=umlActor;verticalLabelPosition=bottom;verticalAlign=top;html=1;outlineConnect=0;fillColor=#0088FF;" parent="1" vertex="1">
          <mxGeometry x="857.5" y="1130" width="50" height="85" as="geometry" />
        </mxCell>
        <mxCell id="rjocITY-BjAMYuqfXkVi-91" style="edgeStyle=orthogonalEdgeStyle;rounded=0;orthogonalLoop=1;jettySize=auto;html=1;entryX=0.422;entryY=-0.027;entryDx=0;entryDy=0;entryPerimeter=0;" parent="1" source="rjocITY-BjAMYuqfXkVi-44" target="rjocITY-BjAMYuqfXkVi-11" edge="1">
          <mxGeometry relative="1" as="geometry" />
        </mxCell>
        <mxCell id="rjocITY-BjAMYuqfXkVi-50" value="&lt;div&gt;&lt;font style=&quot;font-size: 18px;&quot;&gt;VARIABLE&lt;br&gt;&lt;/font&gt;&lt;/div&gt;&lt;div&gt;&lt;font style=&quot;font-size: 18px;&quot;&gt;LIB&lt;br&gt;&lt;/font&gt;&lt;/div&gt;" style="rounded=0;whiteSpace=wrap;html=1;fillColor=#F491FF;" parent="1" vertex="1">
          <mxGeometry x="620" y="480" width="120" height="60" as="geometry" />
        </mxCell>
        <mxCell id="rjocITY-BjAMYuqfXkVi-93" style="edgeStyle=orthogonalEdgeStyle;rounded=0;orthogonalLoop=1;jettySize=auto;html=1;entryX=0.446;entryY=-0.013;entryDx=0;entryDy=0;entryPerimeter=0;" parent="1" source="rjocITY-BjAMYuqfXkVi-35" target="rjocITY-BjAMYuqfXkVi-16" edge="1">
          <mxGeometry relative="1" as="geometry" />
        </mxCell>
        <mxCell id="CzD3i2Qadrxvu6I0S2lp-6" style="edgeStyle=orthogonalEdgeStyle;rounded=0;orthogonalLoop=1;jettySize=auto;html=1;" edge="1" parent="1" source="CzD3i2Qadrxvu6I0S2lp-1">
          <mxGeometry relative="1" as="geometry">
            <mxPoint x="500" y="660" as="targetPoint" />
          </mxGeometry>
        </mxCell>
        <mxCell id="CzD3i2Qadrxvu6I0S2lp-7" style="edgeStyle=orthogonalEdgeStyle;rounded=0;orthogonalLoop=1;jettySize=auto;html=1;" edge="1" parent="1" source="CzD3i2Qadrxvu6I0S2lp-1">
          <mxGeometry relative="1" as="geometry">
            <mxPoint x="870" y="670" as="targetPoint" />
          </mxGeometry>
        </mxCell>
        <mxCell id="CzD3i2Qadrxvu6I0S2lp-11" style="edgeStyle=orthogonalEdgeStyle;rounded=0;orthogonalLoop=1;jettySize=auto;html=1;entryX=1;entryY=0.5;entryDx=0;entryDy=0;" edge="1" parent="1" source="CzD3i2Qadrxvu6I0S2lp-1" target="CzD3i2Qadrxvu6I0S2lp-10">
          <mxGeometry relative="1" as="geometry" />
        </mxCell>
        <mxCell id="CzD3i2Qadrxvu6I0S2lp-1" value="&lt;font style=&quot;font-size: 24px;&quot;&gt;INTERFACE&lt;/font&gt;" style="ellipse;whiteSpace=wrap;html=1;aspect=fixed;fillColor=#00FF4C;" vertex="1" parent="1">
          <mxGeometry x="609.38" y="790" width="186.25" height="186.25" as="geometry" />
        </mxCell>
        <mxCell id="CzD3i2Qadrxvu6I0S2lp-8" style="edgeStyle=orthogonalEdgeStyle;rounded=0;orthogonalLoop=1;jettySize=auto;html=1;entryX=0.607;entryY=0.987;entryDx=0;entryDy=0;entryPerimeter=0;" edge="1" parent="1" source="CzD3i2Qadrxvu6I0S2lp-1" target="rjocITY-BjAMYuqfXkVi-11">
          <mxGeometry relative="1" as="geometry" />
        </mxCell>
        <mxCell id="CzD3i2Qadrxvu6I0S2lp-12" style="edgeStyle=orthogonalEdgeStyle;rounded=0;orthogonalLoop=1;jettySize=auto;html=1;entryX=0;entryY=0.5;entryDx=0;entryDy=0;" edge="1" parent="1" source="CzD3i2Qadrxvu6I0S2lp-10" target="rjocITY-BjAMYuqfXkVi-8">
          <mxGeometry relative="1" as="geometry">
            <mxPoint x="270" y="-160" as="targetPoint" />
            <Array as="points">
              <mxPoint x="290" y="-160" />
              <mxPoint x="530" y="-160" />
            </Array>
          </mxGeometry>
        </mxCell>
        <mxCell id="CzD3i2Qadrxvu6I0S2lp-10" value="&lt;font style=&quot;font-size: 18px;&quot;&gt;LOADER&lt;/font&gt;" style="ellipse;whiteSpace=wrap;html=1;fillColor=#9EC2FF;" vertex="1" parent="1">
          <mxGeometry x="200" y="960" width="180" height="130" as="geometry" />
        </mxCell>
        <mxCell id="CzD3i2Qadrxvu6I0S2lp-20" style="edgeStyle=orthogonalEdgeStyle;rounded=0;orthogonalLoop=1;jettySize=auto;html=1;entryX=0.5;entryY=0;entryDx=0;entryDy=0;" edge="1" parent="1" source="CzD3i2Qadrxvu6I0S2lp-14" target="CzD3i2Qadrxvu6I0S2lp-18">
          <mxGeometry relative="1" as="geometry" />
        </mxCell>
        <mxCell id="CzD3i2Qadrxvu6I0S2lp-21" style="edgeStyle=orthogonalEdgeStyle;rounded=0;orthogonalLoop=1;jettySize=auto;html=1;entryX=0.5;entryY=0;entryDx=0;entryDy=0;" edge="1" parent="1" source="CzD3i2Qadrxvu6I0S2lp-14" target="CzD3i2Qadrxvu6I0S2lp-17">
          <mxGeometry relative="1" as="geometry" />
        </mxCell>
        <mxCell id="CzD3i2Qadrxvu6I0S2lp-22" style="edgeStyle=orthogonalEdgeStyle;rounded=0;orthogonalLoop=1;jettySize=auto;html=1;entryX=0.5;entryY=0;entryDx=0;entryDy=0;" edge="1" parent="1" source="CzD3i2Qadrxvu6I0S2lp-14" target="CzD3i2Qadrxvu6I0S2lp-19">
          <mxGeometry relative="1" as="geometry" />
        </mxCell>
        <mxCell id="CzD3i2Qadrxvu6I0S2lp-14" value="&lt;font style=&quot;font-size: 18px;&quot;&gt;LOADER&lt;/font&gt;" style="ellipse;whiteSpace=wrap;html=1;fillColor=#9EC2FF;" vertex="1" parent="1">
          <mxGeometry x="840" y="71.25" width="180" height="130" as="geometry" />
        </mxCell>
        <mxCell id="CzD3i2Qadrxvu6I0S2lp-17" value="&lt;font style=&quot;font-size: 18px;&quot;&gt;DYNAMIC LIB SDL2&lt;/font&gt;" style="rounded=0;whiteSpace=wrap;html=1;fillColor=#4760FF;" vertex="1" parent="1">
          <mxGeometry x="1240" y="98.75" width="135" height="75" as="geometry" />
        </mxCell>
        <mxCell id="CzD3i2Qadrxvu6I0S2lp-18" value="&lt;font style=&quot;font-size: 18px;&quot;&gt;DYNAMIC LIB NCURSES&lt;/font&gt;" style="rounded=0;whiteSpace=wrap;html=1;fillColor=#4760FF;" vertex="1" parent="1">
          <mxGeometry x="1060" y="98.75" width="125" height="75" as="geometry" />
        </mxCell>
        <mxCell id="CzD3i2Qadrxvu6I0S2lp-19" value="&lt;div&gt;&lt;font style=&quot;font-size: 18px;&quot;&gt;DYNAMIC LIB &lt;br&gt;&lt;/font&gt;&lt;/div&gt;&lt;div&gt;&lt;font style=&quot;font-size: 18px;&quot;&gt;SFML&lt;br&gt;&lt;/font&gt;&lt;/div&gt;" style="rounded=0;whiteSpace=wrap;html=1;fillColor=#4760FF;" vertex="1" parent="1">
          <mxGeometry x="1420" y="98.75" width="130" height="75" as="geometry" />
        </mxCell>
      </root>
    </mxGraphModel>
  </diagram>
</mxfile>
